<?xml version="1.0" standalone="no"?>
<!DOCTYPE svg PUBLIC "-//W3C//DTD SVG 20010904//EN"
 "http://www.w3.org/TR/2001/REC-SVG-20010904/DTD/svg10.dtd">
<svg version="1.0" xmlns="http://www.w3.org/2000/svg"
 width="300.000000pt" height="300.000000pt" viewBox="0 0 300.000000 300.000000"
 preserveAspectRatio="xMidYMid meet">
<metadata>
Created by potrace 1.10, written by Peter Selinger 2001-2011
</metadata>
<g transform="translate(0.000000,300.000000) scale(0.050000,-0.050000)"
fill="#000000" stroke="none">
<path d="M2280 3175 c0 -190 -6 -365 -13 -390 -11 -41 -5 -45 70 -45 l83 0
-12 185 c-13 212 -33 216 178 -40 108 -132 121 -142 205 -148 114 -9 117 -18
-71 197 -192 220 -191 176 -10 389 175 205 172 197 74 197 -72 0 -85 -11 -224
-180 -81 -99 -152 -180 -157 -180 -5 0 -3 81 4 180 l13 180 -70 0 -70 0 0
-345z"/>
<path d="M1100 3132 c-361 -431 -346 -404 -225 -395 94 7 96 9 315 264 121
140 225 256 230 256 6 0 99 -107 207 -239 229 -278 198 -266 320 -117 l96 119
-106 1 -107 2 -198 238 c-109 132 -203 239 -211 239 -7 0 -152 -166 -321 -368z"/>
<path d="M3685 3276 c-25 -12 -45 -30 -45 -39 0 -9 -9 -17 -19 -17 -11 0 -15
14 -8 30 9 23 -5 30 -61 30 l-72 0 0 -270 0 -270 70 0 70 0 0 189 c0 199 21
251 100 251 84 0 105 -55 96 -254 l-8 -186 66 0 66 0 0 176 c0 188 29 264 100
264 79 0 100 -52 100 -251 l0 -189 65 0 65 0 -10 229 c-9 201 -15 235 -53 273
-60 60 -192 62 -250 4 -42 -42 -44 -42 -75 -6 -40 47 -138 64 -197 36z"/>
<path d="M4486 3272 c-80 -36 -142 -142 -94 -160 59 -23 103 -12 114 28 19 73
194 44 194 -32 0 -13 -53 -33 -123 -45 -146 -26 -207 -62 -225 -133 -29 -116
80 -221 208 -200 39 6 113 11 165 10 l95 -2 0 188 c0 321 -117 443 -334 346z
m214 -323 c0 -43 -90 -129 -135 -129 -86 0 -117 109 -40 139 76 31 175 25 175
-10z"/>
<path d="M2867 3255 c6 -14 56 -132 112 -262 l102 -237 -51 -111 c-62 -136
-63 -125 21 -125 49 0 74 11 82 35 13 35 259 652 280 700 8 17 -10 25 -59 25
-75 0 -71 7 -199 -360 -8 -24 -14 -22 -26 10 -8 22 -41 110 -73 195 -58 153
-60 155 -130 155 -49 0 -67 -8 -59 -25z"/>
</g>
</svg>
